<?xml version="1.0" encoding="utf-8"?>
<!-- Generator: Adobe Illustrator 25.4.1, SVG Export Plug-In . SVG Version: 6.00 Build 0)  -->
<svg version="1.1" id="Capa_1" xmlns="http://www.w3.org/2000/svg" xmlns:xlink="http://www.w3.org/1999/xlink" x="0px" y="0px"
	 viewBox="0 0 60 30" style="enable-background:new 0 0 60 30;" xml:space="preserve">
<style type="text/css">
	.st0{fill:#232B45;}
</style>
<path class="st0" d="M54.2,17.2l-8.8-8.8c-0.6-0.6-1.5-0.6-2.1,0c-0.6,0.6-0.6,1.5,0,2.1l6.4,6.4H6.9c-0.8,0-1.5,0.7-1.5,1.5
	s0.7,1.5,1.5,1.5h42.6L43,26.3c-0.6,0.6-0.6,1.5,0,2.1c0.3,0.3,0.7,0.4,1,0.4c0.4,0,0.8-0.1,1-0.4l9.1-9.1c0.3-0.3,0.4-0.7,0.4-1
	S54.4,17.5,54.2,17.2z"/>
</svg>
