<?xml version="1.0" encoding="utf-8"?>
<!-- Generator: Adobe Illustrator 25.4.1, SVG Export Plug-In . SVG Version: 6.00 Build 0)  -->
<svg version="1.1" id="Capa_1" xmlns="http://www.w3.org/2000/svg" xmlns:xlink="http://www.w3.org/1999/xlink" x="0px" y="0px"
	 viewBox="0 0 20 20" style="enable-background:new 0 0 20 20;" xml:space="preserve">
<style type="text/css">
	.st0{fill-rule:evenodd;clip-rule:evenodd;fill:#FFFFFF;}
</style>
<path class="st0" d="M10,2.3c1.2,0,2.5,0,3.7,0.1c0.6,0,1.2,0.1,1.8,0.3c0.8,0.4,1.4,1,1.8,1.8c0.2,0.6,0.3,1.2,0.3,1.8
	c0,0.9,0.1,1.2,0.1,3.7c0,1.2,0,2.5-0.1,3.7c0,0.6-0.1,1.2-0.3,1.8c-0.4,0.8-1,1.4-1.8,1.8c-0.6,0.2-1.2,0.3-1.8,0.3
	c-0.9,0-1.2,0.1-3.7,0.1c-1.2,0-2.5,0-3.7-0.1c-0.6,0-1.2-0.1-1.8-0.3c-0.8-0.4-1.4-1-1.8-1.8c-0.2-0.6-0.3-1.2-0.3-1.8
	c0-0.9-0.1-1.2-0.1-3.7c0-1.2,0-2.5,0.1-3.7c0-0.6,0.1-1.2,0.3-1.8c0.2-0.4,0.4-0.7,0.7-1c0.2-0.4,0.6-0.6,1-0.7
	c0.6-0.2,1.2-0.3,1.8-0.3C7.5,2.3,8.8,2.3,10,2.3L10,2.3z M10,0.7c-1.3,0-2.6,0-3.8,0.1c-0.8,0-1.6,0.1-2.3,0.4
	c-0.6,0.2-1.2,0.6-1.7,1c-0.5,0.5-0.8,1-1,1.7C0.9,4.6,0.7,5.4,0.8,6.2C0.7,7.4,0.6,8.7,0.7,10c0,1.3,0,2.6,0.1,3.8
	c0,0.8,0.1,1.6,0.4,2.3c0.2,0.6,0.6,1.2,1,1.7c0.5,0.5,1,0.8,1.7,1c0.7,0.3,1.5,0.4,2.3,0.4c1.3,0.1,2.6,0.1,3.8,0.1
	c1.3,0,2.6,0,3.8-0.1c0.8,0,1.6-0.1,2.3-0.4c0.6-0.2,1.2-0.6,1.7-1c0.5-0.5,0.8-1,1-1.7c0.3-0.7,0.4-1.5,0.4-2.3
	c0-1,0.1-1.3,0.1-3.8c0-1.3,0-2.6-0.1-3.8c0-0.8-0.1-1.6-0.4-2.3c-0.2-0.6-0.6-1.2-1-1.7c-0.5-0.5-1-0.8-1.7-1
	c-0.7-0.3-1.5-0.4-2.3-0.4C12.6,0.7,11.3,0.6,10,0.7z M10,5.2c-0.6,0-1.3,0.1-1.8,0.3c-0.6,0.2-1.1,0.6-1.6,1c-0.4,0.4-0.8,1-1,1.6
	C5.3,8.7,5.2,9.4,5.2,10c0,0.9,0.3,1.9,0.8,2.7s1.3,1.4,2.1,1.8c0.9,0.4,1.8,0.5,2.8,0.3c0.9-0.2,1.8-0.6,2.4-1.3s1.1-1.5,1.3-2.4
	c0.2-0.9,0.1-1.9-0.3-2.8c-0.4-0.9-1-1.6-1.8-2.1C11.9,5.5,10.9,5.2,10,5.2z M10,13.1c-0.4,0-0.8-0.1-1.2-0.2
	c-0.4-0.2-0.7-0.4-1-0.7c-0.3-0.3-0.5-0.6-0.7-1C7,10.8,6.9,10.4,6.9,10c0-0.4,0.1-0.8,0.2-1.2c0.2-0.4,0.4-0.7,0.7-1
	c0.3-0.3,0.6-0.5,1-0.7C9.2,7,9.6,6.9,10,6.9c0.4,0,0.8,0.1,1.2,0.2c0.4,0.2,0.7,0.4,1,0.7c0.3,0.3,0.5,0.6,0.7,1
	c0.2,0.4,0.2,0.8,0.2,1.2c0,0.4-0.1,0.8-0.2,1.2c-0.2,0.4-0.4,0.7-0.7,1c-0.3,0.3-0.6,0.5-1,0.7C10.8,13,10.4,13.1,10,13.1z M15,3.9
	c-0.2,0-0.4,0.1-0.6,0.2c-0.2,0.1-0.3,0.3-0.4,0.5S13.8,5,13.9,5.2c0,0.2,0.2,0.4,0.3,0.6c0.2,0.2,0.4,0.3,0.6,0.3
	c0.2,0,0.5,0,0.7-0.1s0.4-0.2,0.5-0.4c0.1-0.2,0.2-0.4,0.2-0.6c0-0.3-0.1-0.6-0.3-0.8C15.6,4,15.3,3.9,15,3.9z"/>
</svg>
