<?xml version="1.0" encoding="utf-8"?>
<!-- Generator: Adobe Illustrator 25.4.1, SVG Export Plug-In . SVG Version: 6.00 Build 0)  -->
<svg version="1.1" id="Capa_1" xmlns="http://www.w3.org/2000/svg" xmlns:xlink="http://www.w3.org/1999/xlink" x="0px" y="0px"
	 viewBox="0 0 256 149" style="enable-background:new 0 0 256 149;" xml:space="preserve">
<style type="text/css">
	.st0{fill:#E0B973;}
	.st1{fill:#14274A;}
</style>
<path class="st0" d="M0,0h256v99c0,13.3-5.3,26-14.6,35.4C232,143.7,219.3,149,206,149H50c-13.3,0-26-5.3-35.4-14.6
	C5.3,125,0,112.3,0,99V0z"/>
<path class="st1" d="M77,96.1c-0.1,0-0.1,0-0.2-0.1c-0.1,0-0.1-0.1-0.1-0.2c0-0.2,0.1-0.3,0.3-0.3c0.4-0.1,0.6-0.2,0.7-0.3
	c0.1-0.1,0.2-0.4,0.2-0.7v-6.8c0-0.3-0.1-0.6-0.2-0.7c-0.1-0.1-0.3-0.2-0.7-0.3c-0.2,0-0.3-0.2-0.3-0.3c0-0.1,0-0.1,0.1-0.2
	c0.1,0,0.1-0.1,0.2-0.1c0.4,0,0.7,0,1.1,0c0.5,0,0.8,0,1,0c0.2,0,0.5,0,1,0c0.5,0,0.9,0,1.2,0c0.2,0,0.3,0.1,0.3,0.2
	c0,0.1,0,0.1-0.1,0.2c0,0-0.1,0.1-0.2,0.1c-0.4,0.1-0.7,0.2-0.8,0.4c-0.1,0.1-0.2,0.4-0.2,0.7v2.7c0,0.1,0.1,0.2,0.2,0.2h4
	c0.1,0,0.1,0,0.2,0s0-0.1,0-0.2v-2.7c0-0.3-0.1-0.5-0.2-0.7c-0.1-0.1-0.4-0.3-0.8-0.4c-0.1,0-0.2-0.1-0.3-0.1c0-0.1-0.1-0.1-0.1-0.2
	c0-0.2,0.1-0.2,0.3-0.2c0.2,0,0.6,0,1.2,0c0.5,0,0.9,0,1.1,0c0.2,0,0.5,0,0.9,0c0.4,0,0.7,0,1.1,0c0.1,0,0.2,0,0.2,0.1
	c0.1,0,0.1,0.1,0.1,0.2c0,0.2-0.1,0.3-0.3,0.3c-0.4,0.1-0.6,0.2-0.7,0.3C87,87.2,87,87.5,87,87.8v6.8c0,0.3,0.1,0.5,0.2,0.7
	c0.1,0.1,0.4,0.2,0.7,0.3c0.2,0,0.3,0.1,0.3,0.3c0,0.1,0,0.1-0.1,0.2c-0.1,0-0.1,0.1-0.2,0.1c-0.3,0-0.7,0-1,0c-0.5,0-0.8,0-1,0
	c-0.2,0-0.5,0-1,0c-0.4,0-0.8,0-1.2,0c-0.2,0-0.3-0.1-0.3-0.2c0-0.1,0-0.2,0.1-0.2c0.1,0,0.1-0.1,0.2-0.1c0.4-0.1,0.7-0.2,0.8-0.4
	c0.1-0.1,0.2-0.3,0.2-0.6v-2.8c0-0.2-0.1-0.3-0.2-0.3h-4c-0.1,0-0.2,0.1-0.2,0.2v2.8c0,0.3,0.1,0.5,0.2,0.6s0.4,0.3,0.8,0.4
	c0.1,0,0.2,0.1,0.2,0.1c0.1,0,0.1,0.1,0.1,0.2c0,0.2-0.1,0.2-0.3,0.2c-0.4,0-0.7,0-1.2,0c-0.5,0-0.9,0-1.1,0c-0.3,0-0.7,0-1,0
	C77.6,96.1,77.2,96.1,77,96.1z M103.1,96.2c-0.9,0-1.8-0.2-2.6-0.6c-0.8-0.4-1.4-1-1.9-1.8c-0.5-0.8-0.7-1.6-0.7-2.6
	c0-0.9,0.2-1.8,0.6-2.6c0.4-0.8,1-1.4,1.8-1.9c0.8-0.5,1.8-0.7,2.9-0.7c0.9,0,1.8,0.2,2.6,0.6c0.8,0.4,1.4,1,1.9,1.7
	c0.5,0.8,0.7,1.6,0.7,2.6c0,0.9-0.2,1.8-0.6,2.6c-0.4,0.8-1,1.4-1.8,1.9C105.2,96,104.2,96.2,103.1,96.2z M103.4,95.6
	c0.8,0,1.5-0.3,1.9-1c0.5-0.7,0.7-1.6,0.7-2.8c0-0.9-0.1-1.7-0.3-2.4s-0.6-1.4-1-1.8c-0.5-0.5-1-0.7-1.7-0.7c-0.8,0-1.5,0.3-1.9,1
	c-0.4,0.7-0.7,1.6-0.7,2.7c0,0.9,0.1,1.7,0.3,2.4c0.2,0.8,0.6,1.4,1,1.9C102.1,95.3,102.7,95.6,103.4,95.6z M120.7,96.1
	c-0.1,0-0.2,0-0.2-0.1c-0.1,0-0.1-0.1-0.1-0.2c0-0.2,0.1-0.3,0.4-0.3c0.4-0.1,0.7-0.2,0.8-0.3c0.2-0.1,0.3-0.4,0.3-0.7v-6.2
	c0-0.5,0-0.9-0.1-1.1c0-0.2-0.1-0.3-0.2-0.3c-0.1-0.1-0.4-0.1-0.7-0.1h-0.3c-0.3,0-0.6,0.1-0.9,0.2c-0.3,0.2-0.5,0.3-0.7,0.6
	c-0.2,0.2-0.3,0.4-0.4,0.6c-0.1,0.1-0.3,0.2-0.4,0.2c-0.1,0-0.2-0.1-0.2-0.3c0-0.2,0-0.3,0.1-0.4c0.2-0.4,0.3-0.7,0.4-1
	c0.1-0.3,0.2-0.6,0.2-0.9c0-0.3,0.2-0.4,0.4-0.4c0,0,0.1,0,0.2,0.1c0.1,0.1,0.1,0.1,0.1,0.1c0.1,0.1,0.2,0.2,0.2,0.3
	c0.1,0.1,0.2,0.1,0.5,0.2c0.2,0,0.4,0.1,0.6,0.1h5.6c0.2,0,0.4,0,0.6-0.1c0.2-0.1,0.3-0.1,0.4-0.2c0.1-0.1,0.2-0.1,0.3-0.2
	c0.1-0.1,0.1-0.1,0.2-0.1c0.1-0.1,0.1-0.1,0.2-0.1c0.1,0,0.2,0.1,0.2,0.3c0,0.1,0,0.2,0,0.3c0,0.2-0.1,0.3-0.1,0.4
	c0,0.1-0.1,0.2-0.1,0.5c-0.1,0.2-0.1,0.5-0.1,0.7V88c0,0.4-0.1,0.6-0.3,0.6c-0.1,0-0.2,0-0.2-0.1c-0.1-0.1-0.1-0.2-0.2-0.5
	c-0.1-0.4-0.3-0.6-0.5-0.8c-0.2-0.2-0.5-0.3-1-0.3h-0.8c-0.2,0-0.3,0-0.4,0.1c-0.1,0.1-0.2,0.2-0.2,0.4c0,0.2-0.1,0.6-0.1,1v6
	c0,0.3,0.1,0.5,0.2,0.6c0.2,0.1,0.4,0.3,0.8,0.4c0.1,0,0.2,0.1,0.3,0.1c0.1,0,0.1,0.1,0.1,0.2c0,0.1,0,0.1-0.1,0.2
	c-0.1,0-0.1,0.1-0.2,0.1c-0.4,0-0.8,0-1.2,0c-0.5,0-0.9,0-1.1,0c-0.2,0-0.6,0-1.1,0C121.4,96.1,121,96.1,120.7,96.1z M137.6,96.1
	c-0.1,0-0.2,0-0.2-0.1c-0.1,0-0.1-0.1-0.1-0.2s0-0.1,0.1-0.2c0.1-0.1,0.1-0.1,0.3-0.1c0.4-0.1,0.6-0.2,0.7-0.3
	c0.1-0.1,0.2-0.3,0.2-0.6v-6.8c0-0.3-0.1-0.6-0.2-0.7c-0.1-0.1-0.4-0.2-0.7-0.3c-0.2,0-0.3-0.2-0.3-0.3c0-0.1,0-0.1,0.1-0.2
	c0.1-0.1,0.1-0.1,0.2-0.1c0.4,0,0.8,0,1.2,0c0.5,0,0.9,0,1.1,0c1.2,0,2.3,0,3.2,0c0.3,0,0.6,0,0.8,0c0.2,0,0.3-0.1,0.4-0.1
	c0.1,0,0.2,0,0.2,0.1c0.1,0,0.1,0.1,0.1,0.2c0,0.2,0.1,0.5,0.1,0.9c0.1,0.5,0.1,0.9,0.1,1.1c0,0.1,0,0.2-0.1,0.2
	c0,0.1-0.1,0.1-0.1,0.1c-0.1,0-0.2-0.1-0.3-0.2c0-0.1-0.1-0.2-0.2-0.4c-0.1-0.2-0.1-0.3-0.2-0.4c-0.1-0.1-0.1-0.2-0.2-0.3
	c-0.3-0.3-0.7-0.5-1.1-0.5h-1.1c-0.2,0-0.4,0.1-0.6,0.2c-0.2,0.1-0.2,0.3-0.2,0.5v2.8c0,0.2,0.1,0.4,0.4,0.4h1.3
	c0.2,0,0.4-0.1,0.5-0.2c0.1-0.1,0.2-0.4,0.3-0.7c0.1-0.2,0.2-0.3,0.3-0.3c0.1,0,0.1,0,0.1,0.1c0,0.1,0.1,0.1,0,0.2
	c0,0.5-0.1,0.9-0.1,1.2c0,0.4,0,0.8,0,1.2l0,0.1c0,0.2-0.1,0.3-0.2,0.3c-0.1,0-0.1,0-0.2-0.1c-0.1-0.1-0.1-0.2-0.1-0.3
	c-0.1-0.3-0.2-0.6-0.3-0.7c-0.1-0.2-0.3-0.2-0.4-0.2h-1.4c-0.2,0-0.4,0.1-0.4,0.3v2.8c0,0.3,0.1,0.5,0.2,0.6
	c0.1,0.1,0.3,0.2,0.6,0.2h1.3c0.5,0,0.9-0.1,1.1-0.3c0.3-0.2,0.6-0.6,0.9-1.2c0.1-0.1,0.2-0.2,0.3-0.2c0.1,0,0.1,0,0.1,0.1
	c0,0,0,0.1,0,0.2c0,0.2,0,0.4-0.1,0.6c-0.1,0.2-0.1,0.5-0.3,0.9c-0.1,0.1-0.1,0.3-0.1,0.4c0,0.1-0.1,0.1-0.1,0.1
	c-0.1,0-0.1,0.1-0.2,0.1c-0.4,0-0.8,0-1.2,0c-2.1,0-3.3,0-3.7,0c-0.3,0-0.7,0-1,0C138.2,96.1,137.8,96.1,137.6,96.1z M155.3,96.1
	c-0.1,0-0.2,0-0.2-0.1c-0.1,0-0.1-0.1-0.1-0.2c0-0.1,0-0.1,0.1-0.2c0.1-0.1,0.1-0.1,0.2-0.1c0.4-0.1,0.6-0.2,0.7-0.3
	c0.1-0.1,0.2-0.3,0.2-0.6v-6.9c0-0.3-0.1-0.6-0.2-0.7c-0.1-0.1-0.4-0.2-0.8-0.3c-0.2,0-0.3-0.2-0.3-0.3c0-0.1,0-0.1,0.1-0.2
	c0.1,0,0.1-0.1,0.2-0.1c0.4,0,0.8,0,1.1,0c0.5,0,0.8,0,1,0c0.2,0,0.6,0,1.1,0c0.6,0,0.9,0,1.2,0c0.2,0,0.3,0.1,0.3,0.2
	c0,0.1,0,0.2-0.1,0.2c-0.1,0-0.1,0.1-0.2,0.1c-0.4,0.1-0.7,0.2-0.8,0.4c-0.1,0.1-0.2,0.3-0.2,0.6v6.8c0,0.3,0.1,0.5,0.2,0.6
	c0.1,0.1,0.3,0.2,0.6,0.2h1.5c0.4,0,0.8-0.1,1.1-0.4c0.3-0.3,0.6-0.7,0.8-1.2c0.1-0.2,0.2-0.3,0.2-0.4c0.1-0.1,0.1-0.1,0.2-0.1
	c0.1,0,0.1,0,0.2,0.1c0,0.1,0.1,0.1,0.1,0.2c0,0,0,0.1,0,0.1c0,0.1,0,0.1,0,0.2c-0.2,0.5-0.3,0.9-0.3,1.2c-0.1,0.2-0.1,0.5-0.1,0.9
	c0,0.2-0.1,0.3-0.2,0.3l-1.7,0c-2.2,0-3.3,0-3.5,0c-0.4,0-0.8,0-1.2,0L155.3,96.1z M175.7,96.2c-0.9,0-1.7-0.2-2.4-0.6
	c-0.2-0.1-0.3-0.2-0.3-0.4c-0.1-0.3-0.2-0.6-0.2-1c0-0.4-0.1-0.8,0-1.2c0-0.1,0.1-0.2,0.3-0.2c0.1,0,0.2,0,0.2,0
	c0,0,0.1,0.1,0.1,0.1c0.2,0.8,0.6,1.4,1,1.8c0.4,0.4,0.9,0.7,1.5,0.7c0.4,0,0.8-0.1,1-0.4c0.3-0.3,0.4-0.6,0.4-1
	c0-0.3-0.1-0.6-0.2-0.8c-0.1-0.2-0.3-0.4-0.5-0.6c-0.2-0.2-0.6-0.4-1-0.6c-0.6-0.3-1-0.6-1.3-0.8c-0.3-0.2-0.6-0.5-0.9-0.9
	c-0.2-0.4-0.3-0.8-0.3-1.4c0-0.6,0.2-1.1,0.5-1.5c0.3-0.4,0.7-0.8,1.3-1c0.5-0.2,1.1-0.4,1.8-0.4c0.3,0,0.7,0,1,0.1
	c0.4,0.1,0.6,0.2,0.9,0.3c0.1,0,0.2,0.1,0.3,0.2c0.1,0.1,0.1,0.2,0.2,0.3c0.1,0.5,0.2,1.1,0.2,1.8c0,0.1,0,0.1-0.1,0.1
	s-0.1,0.1-0.2,0.1c-0.1,0-0.2,0-0.3-0.1c-0.1,0-0.1-0.1-0.1-0.2c-0.2-0.6-0.4-1.1-0.8-1.4c-0.3-0.3-0.7-0.5-1.2-0.5
	c-0.9,0-1.4,0.5-1.4,1.4c0,0.3,0.2,0.6,0.5,0.9c0.3,0.3,0.8,0.6,1.5,1c0.8,0.5,1.4,1,1.7,1.4c0.3,0.5,0.5,1,0.5,1.7
	c0,1-0.3,1.8-1,2.3C177.7,96,176.8,96.2,175.7,96.2z"/>
<path class="st1" d="M30.5,79.2c-0.2,0-0.4-0.1-0.6-0.2c-0.2-0.1-0.2-0.2-0.2-0.4c0-0.2,0.1-0.3,0.2-0.5c0.2-0.2,0.4-0.3,0.6-0.4
	c1-0.3,1.6-0.6,2-0.9c0.4-0.3,0.6-0.9,0.6-1.7V56.9c0-0.9-0.2-1.5-0.5-1.8c-0.3-0.3-1-0.6-2.1-0.8c-0.6-0.1-0.8-0.4-0.8-0.8
	c0-0.2,0.1-0.3,0.2-0.4c0.2-0.1,0.3-0.2,0.6-0.2c1,0,2,0,3,0.1c1.3,0.1,2.2,0.1,2.7,0.1c0.5,0,1.5,0,2.9-0.1
	c1.5-0.1,2.5-0.1,3.1-0.1c0.5,0,0.7,0.2,0.7,0.6c0,0.2-0.1,0.4-0.2,0.6c-0.1,0.1-0.3,0.2-0.6,0.3c-1.1,0.3-1.9,0.7-2.2,1
	c-0.4,0.3-0.6,0.9-0.6,1.6v18c0,0.7,0.2,1.3,0.5,1.6s0.9,0.5,1.7,0.5h4.1c1.1,0,2-0.4,2.8-1.1c0.8-0.8,1.5-1.8,2.1-3.2
	c0.2-0.5,0.4-0.8,0.6-1c0.2-0.2,0.3-0.3,0.5-0.3c0.2,0,0.3,0.1,0.4,0.3c0.1,0.2,0.2,0.3,0.2,0.5c0,0.1,0,0.2-0.1,0.4
	c-0.1,0.1-0.1,0.3-0.1,0.4c-0.4,1.4-0.7,2.5-0.8,3.1c-0.1,0.6-0.2,1.4-0.3,2.3c-0.1,0.5-0.3,0.8-0.6,0.8l-4.6-0.1
	c-5.8-0.1-8.9-0.1-9.3-0.1c-1,0-2.1,0-3.2,0.1L30.5,79.2z M73.2,79.6c-3.7,0-6.5-1-8.4-2.9c-1.9-1.9-2.9-4.5-2.9-7.8V57.5
	c0-0.8-0.2-1.5-0.6-2c-0.3-0.6-0.8-1-1.5-1.2c-0.7-0.2-1.1-0.5-1.1-0.9c0-0.2,0.1-0.3,0.3-0.4c0.2-0.1,0.5-0.2,0.8-0.2
	c0.9,0,1.8,0,2.7,0.1c1.2,0.1,2,0.1,2.5,0.1c0.5,0,1.4,0,2.7-0.1c1.3-0.1,2.2-0.1,2.7-0.1c0.7,0,1.1,0.2,1.1,0.6
	c0,0.2-0.1,0.3-0.3,0.5c-0.2,0.1-0.4,0.2-0.8,0.4c-0.3,0.1-0.6,0.2-0.8,0.3c-0.5,0.2-0.8,0.5-1.1,1c-0.3,0.5-0.4,1.2-0.4,2v10.5
	c0,2.6,0.6,4.6,1.8,5.9c1.2,1.3,2.8,2,4.7,2c2.4,0,4.2-0.7,5.4-2.2c1.2-1.5,1.8-3.7,1.8-6.6l0-5c0-1.2,0-2.1,0-2.6
	c0-1.7-0.2-2.9-0.5-3.6c-0.3-0.7-0.8-1.2-1.6-1.6c-0.2-0.1-0.4-0.2-0.7-0.2c-0.3-0.1-0.5-0.2-0.7-0.3c-0.2-0.1-0.2-0.2-0.2-0.4
	c0-0.4,0.4-0.6,1.2-0.6l2.4,0c0.3,0,0.8,0,1.5,0c0.5,0,1.1,0,1.8-0.1c0.7-0.1,1.4-0.1,1.8-0.1c0.7,0,1,0.2,1,0.6
	c0,0.3-0.4,0.6-1.1,0.8c-0.9,0.2-1.5,0.6-1.9,1.2c-0.3,0.6-0.5,1.3-0.6,2.3C84,61.2,84,64.7,84,68.6c0,2.1-0.5,4-1.4,5.7
	s-2.3,3-3.9,3.9C77,79.1,75.2,79.6,73.2,79.6z M95.1,79.3c-0.8,0-1.2-0.2-1.2-0.6c0-0.2,0.1-0.4,0.2-0.4c0.2-0.1,0.3-0.2,0.5-0.2
	c0.2-0.1,0.3-0.1,0.4-0.2c0.8-0.2,1.6-0.6,2.4-1.2c0.8-0.6,1.7-1.4,2.5-2.6l4.8-6.3c0.4-0.5,0.6-0.9,0.6-1.4c0-0.4-0.2-0.9-0.6-1.4
	l-5.7-8c-0.6-0.8-1.1-1.4-1.6-1.8c-0.5-0.4-1-0.7-1.8-1c-0.3-0.1-0.6-0.2-0.7-0.3c-0.2-0.1-0.2-0.3-0.2-0.5c0-0.2,0.1-0.3,0.2-0.4
	c0.2-0.1,0.4-0.2,0.6-0.2c1.2,0,2.4,0,3.7,0.1c0.4,0,1,0.1,1.6,0.1s1.4,0,2.2,0c0.4,0,0.9,0,1.4,0c0.5,0,0.9-0.1,1.2-0.1
	c0.9-0.1,1.7-0.1,2.5-0.1c0.3,0,0.5,0.1,0.8,0.2c0.2,0.1,0.4,0.2,0.4,0.4c0,0.2-0.1,0.4-0.4,0.5c-0.2,0.1-0.5,0.2-0.8,0.3
	c-0.9,0.2-1.5,0.4-1.8,0.6c-0.3,0.2-0.5,0.5-0.5,1c0,0.3,0.2,0.8,0.6,1.4l3.8,5.2c0.3,0.4,0.5,0.6,0.8,0.6c0.2,0,0.4-0.2,0.6-0.5
	L115,58c0.6-0.9,1-1.6,1-2.2c0-0.3-0.1-0.6-0.4-0.8c-0.3-0.2-0.7-0.5-1.4-0.6c-0.8-0.2-1.2-0.5-1.2-0.9c0-0.3,0.4-0.5,1.2-0.5
	c0.6,0,1.2,0,1.9,0.1l1.8,0c0.4,0,0.7,0,1.1,0c0.4-0.1,0.7-0.1,0.9-0.1c0.9-0.1,1.5-0.2,2.1-0.2c0.3,0,0.6,0.1,0.9,0.2
	c0.3,0.1,0.4,0.3,0.4,0.5s-0.1,0.4-0.3,0.5c-0.2,0.1-0.5,0.2-0.9,0.3c-0.6,0.2-1.2,0.5-1.9,1c-0.7,0.5-1.3,1-1.8,1.6l-5.5,6.8
	c-0.3,0.4-0.5,0.7-0.5,1c0,0.3,0.1,0.7,0.4,1.1l6.7,9.5c1,1.4,1.9,2.2,2.9,2.4c0.3,0.1,0.7,0.2,1,0.4c0.3,0.2,0.5,0.4,0.5,0.6
	c0,0.2-0.1,0.3-0.3,0.4c-0.2,0.1-0.4,0.2-0.8,0.2c-0.7,0-1.4,0-2.2-0.1c-0.8,0-1.4,0-1.8,0c-1.1-0.1-2.2-0.1-3.3-0.1
	c-0.6,0-1.5,0-2.7,0.1l-2.6,0c-0.3,0-0.5-0.1-0.8-0.2c-0.2-0.1-0.3-0.3-0.3-0.4c0-0.2,0.1-0.3,0.4-0.5c0.2-0.2,0.5-0.3,0.8-0.4
	c1.5-0.3,2.3-0.9,2.3-1.6c0-0.3-0.1-0.6-0.4-0.9l-4.4-6.2c-0.4-0.5-0.7-0.8-0.9-0.8c-0.3,0-0.5,0.2-0.8,0.7l-3.8,5.4
	c-0.5,0.7-0.7,1.3-0.7,1.8c0,0.5,0.2,0.8,0.5,1.1c0.3,0.3,0.8,0.4,1.4,0.5c0.3,0.1,0.6,0.2,0.8,0.3c0.2,0.2,0.4,0.3,0.4,0.6
	c0,0.2-0.1,0.3-0.4,0.4c-0.2,0.1-0.5,0.1-0.8,0.1l-2.5,0c-0.4,0-0.9,0-1.6,0c-0.3,0-0.7,0-1.2,0c-0.4,0-0.8,0.1-1,0.1
	C96.6,79.3,95.9,79.3,95.1,79.3z M145,79.6c-3.7,0-6.5-1-8.4-2.9c-1.9-1.9-2.9-4.5-2.9-7.8V57.5c0-0.8-0.2-1.5-0.6-2
	c-0.3-0.6-0.8-1-1.5-1.2c-0.7-0.2-1.1-0.5-1.1-0.9c0-0.2,0.1-0.3,0.3-0.4c0.2-0.1,0.5-0.2,0.8-0.2c0.9,0,1.8,0,2.7,0.1
	c1.2,0.1,2,0.1,2.5,0.1c0.5,0,1.4,0,2.7-0.1c1.3-0.1,2.2-0.1,2.7-0.1c0.7,0,1.1,0.2,1.1,0.6c0,0.2-0.1,0.3-0.3,0.5
	c-0.2,0.1-0.4,0.2-0.8,0.4c-0.3,0.1-0.6,0.2-0.8,0.3c-0.5,0.2-0.8,0.5-1.1,1c-0.3,0.5-0.4,1.2-0.4,2v10.5c0,2.6,0.6,4.6,1.8,5.9
	c1.2,1.3,2.8,2,4.7,2c2.4,0,4.2-0.7,5.4-2.2c1.2-1.5,1.8-3.7,1.8-6.6l0-5c0-1.2,0-2.1,0-2.6c0-1.7-0.2-2.9-0.5-3.6
	c-0.3-0.7-0.8-1.2-1.6-1.6c-0.2-0.1-0.4-0.2-0.7-0.2c-0.3-0.1-0.5-0.2-0.7-0.3c-0.2-0.1-0.2-0.2-0.2-0.4c0-0.4,0.4-0.6,1.2-0.6
	l2.4,0c0.3,0,0.8,0,1.5,0c0.5,0,1.1,0,1.8-0.1c0.7-0.1,1.4-0.1,1.8-0.1c0.7,0,1,0.2,1,0.6c0,0.3-0.4,0.6-1.1,0.8
	c-0.9,0.2-1.5,0.6-1.9,1.2c-0.3,0.6-0.5,1.3-0.6,2.3c-0.1,3.4-0.2,6.9-0.2,10.8c0,2.1-0.5,4-1.4,5.7c-1,1.7-2.3,3-3.9,3.9
	C148.8,79.1,147,79.6,145,79.6z M191.7,79.9c-1.9,0-3.4-0.3-4.5-0.9c-1.1-0.6-2.1-1.6-3-2.8c-1-1.3-1.9-2.5-2.6-3.7
	c-0.7-1.2-1.5-2.6-2.4-4.3c-0.3-0.6-0.6-1-1.1-1.2c-0.5-0.3-0.9-0.4-1.4-0.4c-0.3,0-0.4,0.3-0.4,0.8V75c0,0.8,0.2,1.4,0.6,1.8
	c0.5,0.4,1.3,0.7,2.4,0.9c0.3,0.1,0.5,0.1,0.6,0.3c0.2,0.1,0.2,0.3,0.2,0.5c0,0.4-0.3,0.6-0.8,0.6c-1,0-2.1,0-3.3-0.1
	c-1.4-0.1-2.4-0.1-2.9-0.1c-0.5,0-1.5,0-2.8,0.1c-1,0.1-2,0.1-3,0.1c-0.2,0-0.4-0.1-0.6-0.2c-0.2-0.1-0.2-0.2-0.2-0.4
	c0-0.5,0.3-0.7,0.8-0.8c1-0.2,1.7-0.5,2.1-0.8c0.4-0.4,0.6-1,0.6-1.8v-18c0-1-0.2-1.6-0.5-2c-0.3-0.4-0.9-0.7-1.9-0.9
	c-0.6-0.1-0.9-0.4-0.9-0.8c0-0.2,0.1-0.3,0.2-0.4c0.2-0.1,0.4-0.2,0.6-0.2c0.9,0,1.9,0.1,3,0.2c0.2,0,0.5,0,1,0.1c0.5,0,0.9,0,1.4,0
	c0.5,0,1.2-0.1,2.1-0.2c1.4-0.1,2.5-0.2,3.4-0.2c3.1,0,5.5,0.5,7.2,1.6c1.7,1.1,2.5,2.7,2.5,4.8c0,1.6-0.5,2.9-1.5,4
	s-2.2,1.8-3.6,2.2c-0.2,0.1-0.2,0.2,0,0.5c1.3,2,2.6,3.8,3.7,5.2c1.1,1.5,2.3,2.8,3.5,3.9c0.8,0.7,1.6,1.2,2.4,1.4
	c0.9,0.2,1.9,0.3,3.2,0.3c0.4,0,0.6,0.2,0.6,0.7c0,0.8-0.4,1.4-1.3,1.8C194.3,79.7,193.2,79.9,191.7,79.9z M177.8,65.3
	c1.5,0,2.6-0.5,3.4-1.4c0.8-1,1.2-2.2,1.2-3.8c0-3.7-1.5-5.6-4.4-5.6c-0.6,0-1,0.3-1.3,0.8c-0.2,0.5-0.4,1.5-0.4,2.9
	c0,0.8,0,2.7,0,5.6c0,0.5,0.1,0.9,0.4,1.2C176.9,65.2,177.3,65.3,177.8,65.3z M206.8,79.3c-0.3,0-0.6-0.1-0.8-0.2
	c-0.2-0.1-0.3-0.3-0.3-0.4c0-0.4,0.4-0.7,1.2-0.8c1-0.2,1.7-0.5,2.1-1c0.4-0.5,0.6-1.2,0.6-2.1v-5.5c0-0.8-0.1-1.5-0.3-2.1
	c-0.2-0.6-0.5-1.2-0.9-1.9l-5.2-8c-0.5-0.7-0.9-1.3-1.4-1.8c-0.5-0.5-1-0.8-1.7-1c-0.3-0.1-0.6-0.3-0.8-0.4
	c-0.1-0.1-0.2-0.3-0.2-0.5c0-0.2,0.1-0.3,0.2-0.4s0.4-0.2,0.6-0.2c1.1,0,2.2,0,3.2,0.1c0.3,0,0.9,0.1,1.5,0.1c0.7,0,1.3,0,1.8,0
	c0.8,0,1.6,0,2.4-0.1c0.3,0,0.7-0.1,1.2-0.1c0.5,0,1,0,1.4,0c0.3,0,0.5,0.1,0.7,0.2c0.2,0.1,0.4,0.2,0.4,0.4c0,0.2-0.1,0.4-0.4,0.5
	c-0.2,0.1-0.5,0.2-0.8,0.3c-0.8,0.2-1.3,0.4-1.6,0.6c-0.3,0.2-0.4,0.5-0.4,0.9c0,0.4,0.1,0.9,0.4,1.4l4.1,7.1
	c0.2,0.5,0.5,0.7,0.7,0.7c0.2,0,0.5-0.2,0.7-0.7c1.2-2,2.3-4.3,3.5-6.7c0.3-0.6,0.5-1.1,0.5-1.6c0-0.5-0.2-0.9-0.6-1.1
	c-0.4-0.3-0.9-0.4-1.5-0.5c-0.3-0.1-0.6-0.2-0.8-0.3c-0.3-0.2-0.4-0.3-0.4-0.6c0-0.2,0.1-0.3,0.3-0.4c0.2-0.1,0.5-0.2,0.8-0.2
	c0.5,0,1.2,0,2.1,0.1c0.9,0.1,1.5,0.1,2,0.1c0.5,0,0.8,0,1.2,0c0.3,0,0.6-0.1,0.8-0.1c0.9-0.1,1.5-0.2,2.1-0.2
	c0.3,0,0.6,0.1,0.8,0.2c0.2,0.1,0.4,0.3,0.4,0.5c0,0.2-0.1,0.4-0.3,0.5c-0.2,0.1-0.5,0.2-1,0.4c-1.4,0.4-2.6,1.3-3.5,2.7
	c-0.9,1.4-1.4,2.3-1.7,2.7c-1,1.6-2.1,3.3-3.2,5.2c-0.4,0.6-0.7,1.3-0.8,1.9c-0.2,0.6-0.3,1.3-0.3,2v5.9c0,1,0.2,1.7,0.6,2.1
	c0.4,0.4,1.1,0.8,2.2,1c0.4,0.1,0.7,0.2,0.9,0.3c0.2,0.1,0.3,0.3,0.3,0.5c0,0.2-0.1,0.3-0.3,0.4c-0.2,0.1-0.4,0.2-0.7,0.2
	c-0.6,0-1.7-0.1-3.1-0.2c-0.4,0-0.8-0.1-1.3-0.1c-0.5,0-1,0-1.5,0c-0.5,0-1.5,0.1-2.8,0.2C208.4,79.2,207.4,79.3,206.8,79.3z"/>
</svg>
