<?xml version="1.0" encoding="utf-8"?>
<!-- Generator: Adobe Illustrator 25.4.1, SVG Export Plug-In . SVG Version: 6.00 Build 0)  -->
<svg version="1.1" id="Capa_1" xmlns="http://www.w3.org/2000/svg" xmlns:xlink="http://www.w3.org/1999/xlink" x="0px" y="0px"
	 viewBox="0 0 20 20" style="enable-background:new 0 0 20 20;" xml:space="preserve">
<style type="text/css">
	.st0{fill-rule:evenodd;clip-rule:evenodd;fill:#FFFFFF;}
</style>
<path class="st0" d="M6.6,17.6c1.4,0,2.9-0.3,4.2-0.8c1.3-0.5,2.5-1.3,3.5-2.4c1-1,1.8-2.2,2.4-3.5c0.5-1.3,0.8-2.7,0.8-4.2V6.2
	c0.7-0.6,1.4-1.2,1.9-2c-0.7,0.3-1.4,0.5-2.2,0.6c0.8-0.5,1.4-1.2,1.7-2.1c-0.7,0.4-1.6,0.7-2.4,0.9c-0.4-0.4-0.8-0.7-1.3-0.9
	c-0.5-0.2-1-0.3-1.5-0.3c-1,0-2,0.4-2.7,1.1c-0.7,0.7-1.1,1.7-1.1,2.7c0,0.3,0,0.6,0.1,0.8C8.4,7,6.9,6.6,5.5,5.9C4.2,5.2,3,4.2,2,3
	C1.7,3.6,1.5,4.3,1.5,5c0,0.6,0.2,1.2,0.5,1.8c0.3,0.6,0.7,1,1.2,1.4C2.5,8.2,1.9,8,1.4,7.7c0,0.9,0.3,1.7,0.9,2.4
	c0.6,0.7,1.4,1.1,2.2,1.3c-0.3,0.1-0.7,0.1-1,0.1c-0.2,0-0.5,0-0.7-0.1c0.3,0.8,0.7,1.4,1.4,1.9c0.6,0.5,1.4,0.8,2.2,0.8
	c-1.4,1.1-3,1.6-4.8,1.7c-0.3,0-0.6,0-0.9-0.1C2.4,17,4.5,17.6,6.6,17.6"/>
</svg>
